<svg xmlns="http://www.w3.org/2000/svg" viewBox="0 0 106 56">
    <style>
        @media (prefers-color-scheme: dark) {
            .theme-color {
                fill: #ffffff;
            }
        }
        @media (prefers-color-scheme: light) {
            .theme-color {
                fill: #000000;
            }
        }
    </style>
    <path
        class="theme-color"
        d="M10,38H6V18h4ZM4,22H0V34H4Zm102,0h-4V34h4ZM96,38h4V18H96Zm-68-18V26a8,8,0,0,1-7.99994,8H20a7.95228,7.95228,0,0,1-4-1.079V44H12V19.99994A8,8,0,0,1,20,12h.00006A7.99991,7.99991,0,0,1,28,19.99994Zm-4,0a4,4,0,0,0-8,0V26a4,4,0,0,0,8,0Zm70,0V44H90V34H82V44H78V19.99994a8,8,0,0,1,16,0Zm-4,0a4,4,0,0,0-8,0V30h8ZM46,14V50H42V34H34V50H30V14a8,8,0,0,1,16,0Zm-4,0a4,4,0,0,0-8,0V30h8ZM68,52v4H62a4,4,0,0,1-4-4V33.73779a7.89,7.89,0,0,1-6-.81677V56H48V8A8,8,0,0,1,64,8V26a7.96974,7.96974,0,0,1-2.60956,5.899A3.96665,3.96665,0,0,1,62,34V52ZM60,8a4,4,0,0,0-8,0V26a4,4,0,0,0,8,0ZM76,46H70V8H66V46a4,4,0,0,0,4,4h6Z" />
</svg>
